# xmcd
#
# Track frame offsets:
#	150
#	17887
#	32740
#	50530
#	67312
#	83335
#	100450
#	116977
#	132780
#	147712
#	162625
#	179200
#	194542
#	211177
#	226657
#	243202
#
# Disc length: 3460 seconds
#
# Revision: 0
# Processed by: cddbd v1.4b42PL0 Copyright (c) Steve Scherf et al.
# Submitted via: EasyCDDAExtractor 4.5.0.1
#
DISCID=f00d8210
DTITLE=Michelle Wright - The Greatest Hits
DYEAR=1999
DGENRE=country
TTITLE0=New Kind of Love
TTITLE1=All You Really Wanna Do
TTITLE2=Take it Like a Man
TTITLE3=He Would Be Sixteen
TTITLE4=Guitar Talk
TTITLE5=Now and Then
TTITLE6=One Good Man
TTITLE7=Safe in the Arms of Love
TTITLE8=Nobody's Girl
TTITLE9=What Love Looks Like
TTITLE10=The Answer is Yes
TTITLE11=People Get Ready
TTITLE12=Your Love
TTITLE13=Walkin' After Midnight
TTITLE14=When I Found You
TTITLE15=I Surrender
EXTD=
EXTT0=
EXTT1=
EXTT2=
EXTT3=
EXTT4=
EXTT5=
EXTT6=
EXTT7=
EXTT8=
EXTT9=
EXTT10=
EXTT11=
EXTT12=
EXTT13=
EXTT14=
EXTT15=
PLAYORDER=
